<svg id="Layer_1" data-name="Layer 1" xmlns="http://www.w3.org/2000/svg" viewBox="0 0 1600 1600"><defs><style>.cls-1{fill:red;}.cls-2{fill:#fff;}.cls-3{fill:#c4c4c4;}</style></defs><title>logo</title><g id="LOGO"><path class="cls-1" d="M290.87,1220.7,789.4,1485.11c27.33,14,59.82,14,86.41,0l498.53-264.41c30.28-16.25,49.48-47.26,49.48-82V324.83c0-34-19.2-65-48.75-82a1128.86,1128.86,0,0,0-1083.46,0c-31,17-50.22,48-50.22,82v813.89c0,34.72,19.2,65.73,49.48,82"/><path d="M1378,324.84v813.89a46.57,46.57,0,0,1-22.75,39.67c-.53.33-1.07.65-1.62.95l-498.53,264.4a53.8,53.8,0,0,1-22.89,5.16c-7.4,0-14.78-2.22-21.43-5.16l-142.95-75.81L646,1356.35l-25.48-13.52L312.28,1179.35a45.24,45.24,0,0,1-24.37-40.62V324.84c0-17,9.61-32.51,25.12-41.37C471.81,197.06,651.28,150.53,833,150.53a1081.3,1081.3,0,0,1,150.67,10.58q16.53,2.31,33,5.16,17.45,3,34.81,6.57,46.54,9.58,92.11,23.19,11.82,3.53,23.55,7.34h0q11.72,3.76,23.34,7.85a1070.26,1070.26,0,0,1,162.46,72.25A47.06,47.06,0,0,1,1378,324.84"/><path class="cls-2" d="M1190.45,211.22q-1.58-5.08-3.26-10.21-11.75-4-23.59-7.79h0q-11.85-3.75-23.78-7.24-36.16-10.6-73-18.68-18-4-36.18-7.31s0,0,0,0q-17-3.21-34.15-5.8a1086.74,1086.74,0,0,0-164.2-12.52A1100.32,1100.32,0,0,0,307.85,275.34c-18.46,10.33-29.54,28.82-29.54,49.49v680.5c3.17,2.43,6.36,4.78,9.6,7.07s6.38,4.44,9.6,6.53V324.83a36.84,36.84,0,0,1,19.94-32.5A1082,1082,0,0,1,659.41,175q16.25-2.69,32.5-4.84a1062.06,1062.06,0,0,1,277.14-.44q15.83,2,31.62,4.57,16.64,2.64,33.21,5.81a1086.11,1086.11,0,0,1,114,28.38q11.67,3.57,23.22,7.42h0c7.74,2.55,15.4,5.2,23,7.93-1.17-4.18-2.42-8.4-3.73-12.62M1143.54,196c-1.2-3.34-2.45-6.67-3.75-10q-36.16-10.6-73-18.68-7.44,2.5-15.37,5.55c-5.45,2.09-11,4.37-16.66,6.87-.3.12-.6.27-.89.39a1086.11,1086.11,0,0,1,114,28.38c-1.38-4.15-2.83-8.29-4.35-12.47"/><path class="cls-2" d="M1386.16,324.83v813.9a55.47,55.47,0,0,1-29.56,49.49L858.09,1452.61a63.21,63.21,0,0,1-25.85,5.92c-8.87,0-18.46-2.24-25.85-6.66L307.85,1188.22a55.51,55.51,0,0,1-29.54-49.49v-133.4c3.17,2.43,6.36,4.78,9.6,7.07s6.38,4.44,9.6,6.53v119.8a37.62,37.62,0,0,0,19.2,32.5l317.47,168.36,22.38,11.88,20.53,10.87,138.16,73.28c10.33,5.92,23.64,5.92,34.71,0l498.52-264.39a36.73,36.73,0,0,0,19.22-32.5V324.83a36.81,36.81,0,0,0-20-32.5,1091.28,1091.28,0,0,0-153.56-68.49c-1.17-4.18-2.42-8.4-3.73-12.62q-1.58-5.08-3.26-10.21a1097.87,1097.87,0,0,1,169.41,74.33c18.49,10.34,29.56,28.82,29.56,49.49"/><path d="M1197.62,442.32s11.3-104.28-26.51-226.41c-1.28-4.18-2.63-8.35-4-12.55-1.13-3.36-2.28-6.75-3.48-10.14a551,551,0,0,0-26.44-62.13s-47.28,3.49-106.54,28.89c-4.59,1.94-9.26,4.06-14,6.29-5.25,2.5-10.58,5.15-16,8-53.74,28.52-112.07,75.63-152.28,153.18,0,0-32.63-13.57-76.81,1.38,0,0-29.22-98.54-90.37-142,0,0-130.48,42.79-190.25,295.57,0,0-46.2,15.64-73.4,44.85,0,0-19,48.93-18.34,98.52,0,0-48,34.88-101.71,82.82q-4.78,4.24-9.6,8.65c-3.19,2.92-6.41,5.86-9.6,8.86-29.4,27.39-59,57.81-82.26,87.91,0,0-6.31,90.31,82.26,166,3.07,2.65,6.29,5.28,9.6,7.88,3.1,2.43,6.29,4.84,9.6,7.19,29.24,21.09,66.87,40.36,115.31,55.36,0,0,10.85,139.29,177.34,182.79,0,0-17-23.12-17-36,0,0,58.72,39.52,169.86,26.83,0,0-22.59,93.56-86.47,127.39l20.53,10.87,138.16,73.28c10.33,5.92,23.64,5.92,34.71,0l498.52-264.39a36.73,36.73,0,0,0,19.22-32.5V640.78c-27.89-58.9-78.46-131.61-170.08-198.46"/><path class="cls-2" d="M1218.2,432.94c1.84-29.73,3.48-112.7-24-209.1-1.18-4.18-2.43-8.4-3.74-12.62q-1.58-5.08-3.26-10.21a572.68,572.68,0,0,0-32.36-78.78l-5.91-11.83-13.21,1c-2.11.15-52.66,4.12-115.43,31.49-7.61,3.32-15.59,7.07-23.84,11.32q-6.29,3.28-12.81,6.92c-4.81,2.7-9.67,5.55-14.58,8.62A377.52,377.52,0,0,0,838.42,304.41a142.36,142.36,0,0,0-54.13.56c-12-32.21-41.73-98.78-91.61-134.26l-.77-.54-7.38-5.25L675.05,168a107,107,0,0,0-15.64,7C621.51,194.87,525,263.88,474.19,467.68c-16.52,6.8-48.9,22.24-71.12,46.1l-2.55,2.78-1.4,3.53c-.76,2-17.92,46.67-19.59,95.65-14.36,10.77-46,35.13-82,66.45q-4.75,4.13-9.6,8.42c-3.16,2.82-6.38,5.67-9.6,8.62C244,730.16,208,766.12,180.39,801.92l-3.66,4.73-.42,6c-.12,1.94-2.94,47.57,24.9,102.1,19.22,37.7,46.64,67.36,77.1,90.61,3.17,2.43,6.36,4.78,9.6,7.07s6.39,4.44,9.6,6.53c32.33,21.3,66.75,36.23,97.63,46.62a227.89,227.89,0,0,0,26.83,70c23.38,40,70.63,92.67,163.21,116.87l54,14.09L616.77,1236c24.67,6.61,57.54,11.66,98.15,10.07-12.13,30.83-37.49,79.24-80.75,93.51l22.39,11.88,20.53,10.87c62.08-41.19,84-129,85.18-133.62l6.63-27.52-28.11,3.22c-81.21,9.28-138-11.42-156.57-23.59l-30.83-20.75v37.17c0,.86,0,1.72.09,2.6-42.22-18.36-74.55-46.08-96.43-82.73-21.53-36.06-24.5-67.95-24.52-68.19l-1-13.38-12.84-4q-73.28-22.65-121.15-61c-3.29-2.63-6.48-5.33-9.6-8.08-3.31-2.92-6.5-5.92-9.6-9a220.23,220.23,0,0,1-40.85-54.77c-18.33-35-21.28-65.72-21.67-77.82C234,798.06,255.85,775,278.31,753.38q4.79-4.61,9.6-9.13c3.19-3,6.41-6,9.6-8.91C354.86,682.7,410,642.42,410.85,641.78l8.3-6L419,625.53c-.51-37.71,11.69-75.93,15.71-87.54,23.7-23.4,62.21-36.7,62.58-36.85l10.39-3.51L510.2,487c16.23-68.59,48.56-164.38,110.42-231.1,24.58-26.54,46.23-40.09,57.82-46.11,49,41.84,73.94,123.88,74.18,124.74l5.85,19.69,19.46-6.58c35.89-12.15,61.92-2.19,62.83-1.84l16.81,7,8.35-16.15c36.65-70.68,93.19-123.31,168-156.48.3-.12.59-.27.89-.39,5.67-2.5,11.21-4.78,16.67-6.87q7.9-3.06,15.36-5.55a367.63,367.63,0,0,1,58.77-14.75c5.23,11.17,9.94,22.34,14.22,33.43q1.95,5,3.75,10c1.52,4.18,3,8.32,4.35,12.47,41,122.06,30.22,230.44,30.07,231.7l-1.23,11.39,9.26,6.72c98,71.49,146.09,149.7,169.19,202.7,5.06,11.59,9.18,22.56,12.52,32.63v-95.2c-29-50.06-75.49-109.59-149.5-165.49"/><path d="M1367.7,640.78v498a36.73,36.73,0,0,1-19.22,32.5L850,1435.62c-11.07,5.92-24.38,5.92-34.71,0l-138.16-73.28-20.53-10.87c63.88-33.83,86.47-127.39,86.47-127.39-111.14,12.69-169.86-26.83-169.86-26.83,0,12.89,17,36,17,36-166.49-43.5-177.34-182.79-177.34-182.79-48.44-15-86.07-34.27-115.31-55.36-3.31-2.35-6.5-4.76-9.6-7.19-3.31-2.6-6.53-5.23-9.6-7.88-88.57-75.71-82.26-166-82.26-166,23.22-30.1,52.85-60.52,82.26-87.91,3.2-3,6.41-5.94,9.6-8.86s6.41-5.82,9.6-8.65c53.74-47.94,101.71-82.82,101.71-82.82-.69-49.59,18.34-98.52,18.34-98.52,27.2-29.21,73.4-44.85,73.4-44.85,59.77-252.78,190.25-295.57,190.25-295.57,61.15,43.48,90.37,142,90.37,142,44.18-14.95,76.81-1.38,76.81-1.38,40.21-77.55,98.54-124.66,152.28-153.18,5.37-2.87,10.7-5.53,16-8,4.72-2.23,9.38-4.35,14-6.28,0,0,0,0,0,0,59.26-25.41,106.54-28.9,106.54-28.9a545.22,545.22,0,0,1,26.41,62.13h0c1.2,3.39,2.35,6.78,3.48,10.14h0c1.4,4.2,2.75,8.37,4,12.55h0c37.79,122.1,26.49,226.41,26.49,226.41,91.62,66.85,142.19,139.56,170.08,198.46"/><path class="cls-2" d="M1225.17,1111.5c-14.33-29.16-37.91-47.45-37.91-47.45,16.35,150.52-150.5,213.35-150.5,213.35s-122.12,57.6-164.51,3.17-9.49-84.17-9.49-84.17l320.84-187.2-4.95-102c19.08,7.34,29.66,24.88,29.66,24.88,22-199-119.6-277.49-119.6-277.49,23.91,59.33,13.4,152.15,13.4,152.15-54.56-42.11-93.78-36.86-93.78-36.86,107.16,102.87,62.18,198.56,62.18,198.56s-49.37,56-123.19,96.89c-138.64,75.73-220.75,54.6-220.75,54.6,4.21,15.72,22.62,30.42,22.62,30.42-202.46-10-250.34-112.7-250.34-112.7C938.42,1131.17,1003.53,909,1003.53,909,808.68,743.6,691.75,838.9,565.08,922.69c-125.28,82.88-177.34-9.43-178.45-11.45,41.63,21.64,85-13,50.71-53.74s-133.57-41.7-133.57-41.7L486.59,669.42l.29-.25a104.39,104.39,0,0,1,.32-18.33c3.86-36.6,26.23-56.08,26.23-56.08,4,16.67,11.45,25.21,18.33,29.59,8,5.11,15.2,4.54,15.2,4.54l.43-.34,61.14-46.88,5.09-40.2c-18.17,2.57-38.45,17.9-38.45,17.9,40.56-80.47,166.92-67.16,166.92-67.16-64.51-44.56-121-32-121-32,71.32-50.26,249-37.4,249-37.4,75.18-223.57,242.46-239.54,242.46-239.54,33.66,40.32,10,129.79,10,129.79-11.7-35.07-35.27-58.54-35.27-58.54-119.27,65.49-146,181.28-146,181.28,153.16,28.07,187.2,140.77,187.2,140.77,26.53-5.49,31-26.55,31-26.55,237.69,256.52,65.62,561.51,65.62,561.51"/><path class="cls-2" d="M286.77,883.53s44.5,9.32,48.64,21.22-5.17,29.5-10.35,27.43-33.63-24.32-38.29-48.65"/><path class="cls-2" d="M585.72,988s164-192.2,341.44-64.12c0,0-113.94,156.12-341.44,64.12"/><polygon points="667.55 978.77 697.02 939.7 742.33 969.59 773.09 906.1 815.54 956.35 835.34 914.84 859.56 934.52 837.68 923.8 818.93 973.3 778.56 936.35 746.86 990.71 698.32 951.91 667.55 978.77"/><path d="M628.17,777.81s44.3-119.27,149.94-153.35c0,0,41.75-65.6,126.09-69.86,0,0-18.74,36.64-10.22,59.64,0,0,68.15,10.22,100.53,52,0,0-34.93-7.67-55.38,0,0,0,50.27,23.85,66.45,59.63,0,0-111-23.71-168.65-13,0,0,16-48-47.6-26.15-46.93,16.09-55.65,61-55.65,61s-42.74-2.17-105.51,30.09"/><path class="cls-2" d="M333.39,837.12s37.49,3.83,54.39,14.75-69-6.63-54.39-14.75"/><path class="cls-3" d="M1225.16,1111.5c-14.33-29.17-37.91-47.45-37.91-47.45,16.36,150.52-150.49,213.34-150.49,213.34s-122.13,57.6-164.51,3.18-9.5-84.17-9.5-84.17l320.85-187.2-4.95-102c19.08,7.34,29.66,24.87,29.66,24.87,22-199-119.61-277.48-119.61-277.48,23.92,59.32,13.4,152.15,13.4,152.15-54.55-42.11-93.78-36.86-93.78-36.86,107.16,102.86,62.19,198.55,62.19,198.55s-49.38,56-123.19,96.9c-138.65,75.72-220.75,54.6-220.75,54.6,4.2,15.72,22.62,30.41,22.62,30.41-202.47-10-250.34-112.7-250.34-112.7,439.56,93.55,504.68-128.67,504.68-128.67-194.86-165.35-311.78-70-438.45,13.74-125.29,82.88-177.35-9.42-178.46-11.44,41.63,21.64,85-13,50.72-53.74a64,64,0,0,0-10.29-9.72S536,868,628.18,777.82l0,0s0,0,.07,0c26.09-13.4,48.72-20.83,66.25-25h0c23.12,8,120.09,38.16,196-42.29l0,0c54.76,2.49,115,15.37,115,15.37-16.17-35.79-66.43-59.64-66.43-59.64,20.44-7.68,55.37,0,55.37,0-32.39-41.75-100.53-52-100.53-52-8.29-22.42,9.29-57.78,10.18-59.58l.05-.06s101.37-10.08,224.31,21.94c26.53-5.5,31-26.55,31-26.55,237.69,256.52,65.61,561.51,65.61,561.51"/></g></svg>