<svg xmlns="http://www.w3.org/2000/svg" viewBox="0 0 5000 1600"><defs><style>.cls-1{fill:#fff;}.cls-2{fill:#ec2024;}.cls-3{fill:#c3c3c3;}</style></defs><title>logo_wide_alt</title><g id="Alt"><g id="Logo_Wide-2" data-name="Logo Wide"><path class="cls-1" d="M376.33,539.84l-15.17-18.67h75.07l-36.37,94.52h34.62l36.37-94.52h52.7l-36.37,94.52H522l36.37-94.52h52.7L562.83,646.8H335.29Z"/><path class="cls-1" d="M619.62,521.17h75.07L646.46,646.8H593.75l41-107Z"/><path class="cls-1" d="M741.94,615.69H850.46L838.6,646.8H677.38l41-107-15.17-18.67H886.83l-12.06,31.31H766.25Z"/><path class="cls-1" d="M895.38,521.17h75.07l-18.09,47.26h56.4l18.09-47.26h52.7L1031.32,646.8h-52.7l18.09-47.25h-56.4L922.22,646.8h-52.7l41-107Z"/><path class="cls-1" d="M1088.11,521.17h75.07L1115,646.8h-52.71l41-107Z"/><path class="cls-1" d="M1180.37,521.17h167.17l-12.06,31.31h-51.73l-36.17,94.32h-52.7l36.17-94.32h-61.13Z"/><path class="cls-1" d="M1492,646.8h-52.71l15.37-40.26h-56.4l-15.36,40.26h-52.71l41-107-15.17-18.67h184.17Zm-81.68-71.37h56.4l8.75-22.95h-56.4Z"/><path class="cls-1" d="M305.44,783,269,738.2H449.2L361.92,965H445L532.28,738.2H658.77L571.49,965H655L742.31,738.2H868.8L753.05,1039.71H207Z"/><path class="cls-1" d="M925.74,783l-36.4-44.8h442l-115.75,301.51H827.26Zm114.82,30.34L982.22,965h135.36l58.34-151.69Z"/><path class="cls-1" d="M1444.76,965h241.77l-28.47,74.68H1289.8L1388.29,783l-36.41-44.8H1532Z"/><polygon class="cls-1" points="1831.73 1039.71 1989.63 1039.71 2139.74 947.76 2220.02 738.2 2093.53 738.2 2027.72 909.02 1939.04 964.57 1892.37 909.02 1958.18 738.2 1778.02 738.2 1814.42 783 1751.41 947.76 1831.73 1039.71"/><path class="cls-1" d="M2377.31,851.61h261.85l-28.94,74.68H2348.37L2333.44,965h261.84l-28.47,74.68H2178.48L2277,783l-36.4-44.8h442l-28.94,75.14H2391.78Z"/><path class="cls-1" d="M2641,1039.71,2669.49,965h261.38l14.93-38.74H2684.43L2739.5,783l-36.4-44.8h441.54l-28.94,75.14H2854.32l-14.47,38.27h261.38l-72.35,188.1Z"/><path class="cls-2" d="M3694.26,1223.48l501.81,266.1c27.51,14.16,60.22,14.16,87,0l501.79-266.1c30.49-16.36,49.82-47.58,49.82-82.52V321.71c0-34.19-19.33-65.42-49.07-82.51a1136.26,1136.26,0,0,0-1090.59,0c-31.23,17.09-50.55,48.32-50.55,82.51V1141c0,34.91,19.32,66.16,49.8,82.52"/><path d="M4788.58,321.72V1141a46.88,46.88,0,0,1-22.9,39.93c-.54.33-1.08.65-1.63.94L4262.23,1448a54.14,54.14,0,0,1-23,5.2c-7.44,0-14.88-2.23-21.56-5.2l-143.89-76.3-22-11.67-25.65-13.6-310.28-164.53a45.52,45.52,0,0,1-24.54-40.88V321.72c0-17.1,9.68-32.72,25.29-41.64,159.82-87,340.47-133.81,523.36-133.81a1088.39,1088.39,0,0,1,151.66,10.65q16.64,2.33,33.2,5.19,17.55,3,35.05,6.61,46.83,9.65,92.71,23.33,11.89,3.55,23.69,7.39h0q11.81,3.78,23.5,7.91a1076.4,1076.4,0,0,1,163.55,72.72,47.4,47.4,0,0,1,25.29,41.63"/><path class="cls-1" d="M4599.77,207.41c-1.07-3.42-2.15-6.86-3.3-10.29q-11.8-4-23.74-7.83h0c-7.95-2.52-15.91-5-23.94-7.29q-36.4-10.69-73.46-18.8-18.15-4-36.42-7.36h0q-17.16-3.24-34.37-5.84a1094.89,1094.89,0,0,0-165.35-12.65c-184.37,0-366.49,46.82-527.86,134.55-18.58,10.38-29.72,29-29.72,49.82v684.95c3.19,2.44,6.4,4.82,9.66,7.11s6.42,4.47,9.66,6.61V321.72A37.08,37.08,0,0,1,3721,289a1089,1089,0,0,1,344.2-118.09q16.35-2.72,32.72-4.87a1068.9,1068.9,0,0,1,278.95-.45q15.95,2,31.83,4.6,16.76,2.67,33.43,5.86a1093.9,1093.9,0,0,1,114.79,28.52q11.74,3.6,23.37,7.47h0c7.79,2.56,15.5,5.24,23.21,8-1.19-4.21-2.45-8.49-3.78-12.7M4552.54,192c-1.22-3.36-2.47-6.72-3.78-10.1q-36.41-10.69-73.46-18.81c-5,1.68-10.16,3.53-15.47,5.59q-8.22,3.13-16.78,6.91l-.89.4a1093.54,1093.54,0,0,1,114.76,28.56c-1.39-4.18-2.83-8.35-4.37-12.55"/><path class="cls-1" d="M4796.76,321.72V1141a55.87,55.87,0,0,1-29.75,49.82l-501.76,266.13a63.44,63.44,0,0,1-26,6c-8.92,0-18.59-2.25-26-6.7l-501.88-265.39c-18.58-9.68-29.72-29-29.72-49.82V1006.67c3.19,2.44,6.4,4.82,9.66,7.11s6.42,4.47,9.66,6.61V1141a37.89,37.89,0,0,0,19.34,32.72l319.56,169.47,22.54,11.94,20.65,11,139.08,73.75c10.38,6,23.79,6,34.91,0l501.8-266.11a37,37,0,0,0,19.34-32.72V321.72A37,37,0,0,0,4758.06,289a1098.18,1098.18,0,0,0-154.56-68.94c-1.18-4.21-2.44-8.49-3.77-12.7-1.07-3.42-2.15-6.85-3.28-10.29A1107,1107,0,0,1,4767,271.9c18.61,10.38,29.75,29,29.75,49.82"/><path d="M4607,440s11.32-105-26.7-227.89c-1.28-4.2-2.64-8.41-4.05-12.63-1.14-3.39-2.3-6.79-3.51-10.21a552,552,0,0,0-26.61-62.53s-47.59,3.5-107.24,29.07c-4.63,1.95-9.32,4.08-14.09,6.33-5.28,2.52-10.64,5.19-16,8.08-54.11,28.72-112.82,76.13-153.3,154.23,0,0-32.84-13.67-77.32,1.38,0,0-29.4-99.18-91-143,0,0-131.33,43.08-191.51,297.52,0,0-46.5,15.74-73.87,45.14,0,0-19.16,49.25-18.46,99.17,0,0-48.29,35.11-102.39,83.37-3.2,2.83-6.41,5.76-9.65,8.7s-6.45,5.9-9.66,8.92c-29.6,27.57-59.45,58.19-82.81,88.48,0,0-6.35,90.91,82.81,167.12,3.08,2.67,6.32,5.32,9.66,7.94,3.11,2.44,6.32,4.87,9.65,7.24,29.44,21.22,67.32,40.62,116.07,55.72,0,0,10.93,140.2,178.51,184,0,0-17.1-23.27-17.1-36.25,0,0,59.11,39.79,171,27,0,0-22.74,94.17-87,128.22l20.65,10.95,139.08,73.69c10.38,6,23.79,6,34.91,0l501.8-266.11a37,37,0,0,0,19.34-32.72V639.74c-28.06-59.29-79-132.48-171.18-199.77"/><path class="cls-1" d="M4627.69,430.54c1.89-29.93,3.51-113.45-24.17-210.43-1.19-4.21-2.44-8.5-3.77-12.71-1.07-3.41-2.15-6.85-3.29-10.28a576,576,0,0,0-32.57-79.27l-6-11.9-13.3.94c-2.12.14-53,4.15-116.19,31.7-7.65,3.34-15.68,7.11-24,11.39q-6.33,3.32-12.9,7c-4.84,2.72-9.73,5.59-14.68,8.67a379.62,379.62,0,0,0-131.45,135.54,143.26,143.26,0,0,0-54.48.56c-12.14-32.42-42-99.43-92.23-135.14L4098,166l-7.43-5.29-9.54,3.13a110.13,110.13,0,0,0-15.78,7c-38.15,20-135.31,89.45-186.44,294.6-16.62,6.84-49.23,22.38-71.58,46.4l-2.58,2.83-1.4,3.56c-.77,2-18,47-19.73,96.25-14.44,10.84-46.33,35.36-82.55,66.88-3.18,2.77-6.42,5.59-9.66,8.49s-6.42,5.71-9.66,8.69c-34.5,31.14-70.77,67.32-98.57,103.35l-3.68,4.78-.43,6c-.12,2-3,47.89,25.06,102.77,19.35,38,46.95,67.8,77.62,91.2,3.19,2.45,6.4,4.83,9.66,7.12s6.43,4.47,9.66,6.6c32.54,21.45,67.19,36.48,98.28,46.93a229,229,0,0,0,27,70.45c23.53,40.23,71.1,93.28,164.28,117.65l54.36,14.15-22.56-30.69c24.84,6.61,57.92,11.73,98.79,10.13-12.2,31-37.75,79.76-81.28,94.13l22.58,11.92,20.65,11c62.49-41.46,84.61-129.85,85.75-134.5l6.67-27.7-28.31,3.24c-81.73,9.34-138.89-11.49-157.58-23.75l-31-20.88v37.42a25.68,25.68,0,0,0,.09,2.61c-42.46-18.48-75-46.38-97.06-83.27-21.7-36.3-24.66-68.4-24.68-68.65l-1-13.46-12.93-4q-73.76-22.8-121.94-61.46-4.95-4-9.65-8.14c-3.34-2.93-6.55-6-9.66-9a221.59,221.59,0,0,1-41.13-55.13c-18.45-35.24-21.42-66.15-21.81-78.33,18.31-23,40.33-46.18,62.94-67.94q4.82-4.62,9.66-9.19c3.21-3,6.44-6,9.65-9,57.73-53,113.24-93.53,114.1-94.17l8.35-6.06-.15-10.3c-.52-38,11.77-76.44,15.81-88.12,23.85-23.54,62.62-36.94,63-37.08l10.46-3.54,2.54-10.75c16.33-69,48.88-165.46,111.15-232.63,24.73-26.7,46.53-40.35,58.19-46.4,49.32,42.09,74.42,124.67,74.66,125.54l5.89,19.81,19.59-6.6c36.13-12.27,62.28-2.2,63.22-1.89l16.93,7,8.41-16.26c36.89-71.14,93.8-124.12,169.06-157.5.3-.12.6-.27.89-.4q8.56-3.76,16.79-6.91c5.31-2.06,10.47-3.91,15.46-5.59a369.82,369.82,0,0,1,59.16-14.85c5.26,11.24,10,22.48,14.31,33.66q2,5.06,3.77,10.1c1.53,4.2,3,8.37,4.37,12.55,41.29,122.86,30.42,232,30.27,233.22l-1.24,11.47,9.32,6.76c98.65,72,147.05,150.69,170.31,204,5.08,11.66,9.23,22.71,12.59,32.84V597.13c-29.16-50.38-76-110.3-150.48-166.57"/><path d="M4778.17,639.74V1141a36.91,36.91,0,0,1-19.34,32.72L4257,1439.8c-11.14,6-24.54,6-34.92,0L4083,1366l-20.67-10.93c64.29-34,87-128.22,87-128.22-111.87,12.78-171-27-171-27,0,13,17.1,36.24,17.1,36.24-167.58-43.78-178.51-184-178.51-184-48.74-15.1-86.63-34.5-116.06-55.72-3.34-2.37-6.55-4.79-9.67-7.24-3.34-2.62-6.6-5.26-9.66-7.93-89.15-76.19-82.76-167.06-82.76-167.06,23.38-30.29,53.21-60.91,82.81-88.48q4.82-4.51,9.66-8.92c3.22-2.93,6.45-5.86,9.66-8.7,54.09-48.26,102.38-83.37,102.38-83.37-.7-49.92,18.46-99.17,18.46-99.17,27.36-29.4,73.87-45.14,73.87-45.14,60.18-254.44,191.56-297.52,191.56-297.52,61.56,43.77,91,143,91,143,44.48-15.05,77.32-1.37,77.32-1.37,40.47-78.07,99.19-125.51,153.28-154.2,5.41-2.89,10.77-5.56,16-8.08,4.72-2.25,9.43-4.38,14.06-6.32h0c59.65-25.59,107.24-29.09,107.24-29.09a545.76,545.76,0,0,1,26.58,62.54h0c1.21,3.41,2.37,6.82,3.52,10.21h0c1.4,4.22,2.76,8.42,4,12.62h0C4618.26,335,4606.9,440,4606.9,440c92.21,67.29,143.12,140.48,171.19,199.77"/><path class="cls-1" d="M4634.71,1113.56c-14.43-29.35-38.16-47.76-38.16-47.76,16.46,151.51-151.48,214.75-151.48,214.75s-122.94,58-165.6,3.2-9.56-84.73-9.56-84.73l323-188.44-5-102.69c19.2,7.38,29.85,25,29.85,25,22.16-200.31-120.39-279.32-120.39-279.32,24.08,59.72,13.49,153.16,13.49,153.16-54.92-42.39-94.36-37.11-94.36-37.11,107.86,103.55,62.6,199.87,62.6,199.87s-49.7,56.38-124,97.53c-139.55,76.22-222.19,55-222.19,55,4.22,15.82,22.77,30.61,22.77,30.61-203.83-10-252-113.45-252-113.45,442.47,94.18,508-129.51,508-129.51-196.13-166.44-313.83-70.51-441.34,13.83-126.11,83.43-178.51-9.43-179.63-11.52,41.91,21.79,85.56-13.12,51.06-54.09s-134.46-42-134.46-42l184-147.34.3-.25a104.32,104.32,0,0,1,.32-18.45c3.89-36.8,26.43-56.45,26.43-56.45,4,16.78,11.52,25.37,18.44,29.79,8.05,5.14,15.3,4.57,15.3,4.57l.43-.34,61.55-47.18,5.12-40.47c-18.28,2.59-38.69,18-38.69,18,40.83-81,168-67.61,168-67.61C4083.64,445.33,4026.83,458,4026.83,458c71.79-50.6,250.66-37.66,250.66-37.66,75.68-225,244.06-241.1,244.06-241.1,33.88,40.58,10.06,130.63,10.06,130.63-11.78-35.29-35.51-58.91-35.51-58.91-120.17,66-147.1,182.46-147.1,182.46,154.16,28.26,188.43,141.7,188.43,141.7,26.7-5.54,31.23-26.72,31.23-26.72,239.26,258.2,66.05,565.24,66.05,565.24"/><path class="cls-1" d="M3690.14,884.09s44.78,9.34,49,21.36-5.2,29.69-10.38,27.61-33.86-24.53-38.54-49"/><path class="cls-1" d="M3991.06,989.28s165-193.44,343.68-64.54c0,0-114.69,157.15-343.68,64.54"/><polygon points="4073.43 979.95 4103.09 940.62 4148.69 970.72 4179.66 906.8 4222.38 957.39 4242.32 915.61 4266.7 935.41 4244.68 924.63 4225.8 974.45 4185.16 937.25 4153.25 991.97 4104.4 952.92 4073.43 979.95"/><path d="M4033.78,777.67s44.63-120.06,150.93-154.36c0,0,42-66,126.92-70.32,0,0-18.87,36.88-10.29,60,0,0,68.61,10.28,101.19,52.3,0,0-35.16-7.72-55.74,0,0,0,50.6,24,66.89,60,0,0-111.73-23.87-169.77-13.07,0,0,16.12-48.28-47.92-26.32-47.23,16.19-56,61.41-56,61.41s-43-2.19-106.21,30.28"/><path class="cls-1" d="M3737.07,837.38s37.74,3.85,54.73,14.84-69.43-6.67-54.73-14.84"/><path class="cls-3" d="M4634.7,1113.55c-14.43-29.35-38.16-47.76-38.16-47.76,16.47,151.52-151.48,214.75-151.48,214.75s-122.93,58-165.59,3.21-9.56-84.73-9.56-84.73l322.95-188.44-5-102.69c19.2,7.38,29.86,25,29.86,25,22.15-200.32-120.39-279.32-120.39-279.32,24.07,59.73,13.48,153.17,13.48,153.17-54.91-42.39-94.36-37.11-94.36-37.11,107.85,103.54,62.59,199.86,62.59,199.86s-49.7,56.38-124,97.53c-139.55,76.23-222.19,55-222.19,55,4.22,15.81,22.77,30.61,22.77,30.61-203.83-10-252-113.45-252-113.45,442.46,94.17,508-129.51,508-129.51-196.14-166.44-313.83-70.51-441.34,13.83-126.1,83.42-178.51-9.49-179.63-11.52,41.91,21.78,85.55-13.12,51.05-54.1a65,65,0,0,0-10.38-9.78s109.64,20.35,202.44-70.42h0l.07,0c26.27-13.5,49.07-21,66.68-25.13h0c23.27,8,120.87,38.4,197.33-42.57h0c55.13,2.51,115.74,15.48,115.74,15.48-16.28-36-66.88-60-66.88-60,20.57-7.72,55.73,0,55.73,0-32.59-42-101.18-52.3-101.18-52.3-8.35-22.57,9.35-58.17,10.24-60V553s102.05-10.14,225.79,22.08c26.7-5.53,31.23-26.72,31.23-26.72,239.25,258.21,66.06,565.24,66.06,565.24"/></g></g></svg>