<svg xmlns="http://www.w3.org/2000/svg" viewBox="0 0 1200 1600"><defs><style>.cls-1{fill:red;}.cls-2{fill:#fff;}.cls-3{fill:#c4c4c4;}</style></defs><title>logo_text_alt</title><g id="Alt"><g id="Logo_Text-2" data-name="Logo Text"><g id="Name"><path class="cls-1" d="M189.09,1015.47l402.36,213.37a75.77,75.77,0,0,0,69.73,0l402.36-213.37a74.93,74.93,0,0,0,40-66.17V292.42c0-27.42-15.51-52.46-39.38-66.18a911.17,911.17,0,0,0-874.46,0c-25,13.74-40.54,38.76-40.54,66.18V949.3a74.93,74.93,0,0,0,39.95,66.17"/><path d="M1066.53,292.42V949.31a37.56,37.56,0,0,1-18.36,32.05c-.43.28-.86.53-1.31.77l-402.4,213.32a43.44,43.44,0,0,1-18.48,4.17c-6,0-11.91-1.79-17.29-4.17l-115.38-61.18-17.59-9.33L455.16,1114,206.36,982.08a36.52,36.52,0,0,1-19.67-32.78V292.42c0-13.74,7.76-26.23,20.28-33.38,128.15-69.75,273-107.3,419.64-107.3a874,874,0,0,1,121.6,8.53q13.35,1.89,26.62,4.18,14.08,2.42,28.1,5.29,37.55,7.75,74.34,18.72,9.54,2.83,19,5.93h0q9.47,3,18.84,6.33A863,863,0,0,1,1046.23,259a38,38,0,0,1,20.28,33.38"/><path class="cls-2" d="M915.14,200.72c-.86-2.74-1.73-5.49-2.64-8.24q-9.48-3.24-19-6.28h0c-6.41-2-12.77-4-19.23-5.85Q845,171.8,815.34,165.24q-14.58-3.23-29.21-5.91h0c-9.16-1.72-18.32-3.27-27.56-4.67A876.45,876.45,0,0,0,626,144.59,888,888,0,0,0,202.78,252.47c-14.89,8.34-23.8,23.26-23.8,40V841.65c2.55,2,5.12,3.86,7.74,5.7s5.15,3.58,7.75,5.27V292.42a29.74,29.74,0,0,1,16.09-26.24,873.73,873.73,0,0,1,276-94.69q13.1-2.16,26.23-3.9a857.1,857.1,0,0,1,223.67-.36c8.52,1.09,17,2.32,25.53,3.67q13.43,2.13,26.8,4.69a873.81,873.81,0,0,1,92,22.89q9.44,2.88,18.75,6h0c6.25,2.06,12.43,4.2,18.61,6.41-.92-3.37-2-6.78-3-10.18m-37.87-12.27c-1-2.7-2-5.39-3-8.11q-29.25-8.52-58.91-15.07c-4,1.34-8.15,2.83-12.41,4.48s-8.87,3.52-13.45,5.55l-.72.31a877.08,877.08,0,0,1,92,22.89q-1.66-5-3.51-10.07"/><path class="cls-2" d="M1073.08,292.42V949.31a44.72,44.72,0,0,1-23.81,39.94L646.92,1202.62a50.64,50.64,0,0,1-20.86,4.78A42.22,42.22,0,0,1,605.2,1202L202.78,989.25A44.78,44.78,0,0,1,179,949.31V841.65c2.55,2,5.12,3.86,7.74,5.7s5.15,3.58,7.75,5.27v96.69A30.4,30.4,0,0,0,210,975.55l256.23,135.87,18,9.59,16.57,8.78,111.51,59.14c8.34,4.77,19.07,4.77,28,0l402.35-213.37a29.63,29.63,0,0,0,15.52-26.23V292.42a29.74,29.74,0,0,0-16.11-26.24,881.35,881.35,0,0,0-123.93-55.27c-.91-3.37-2-6.78-3-10.19-.85-2.74-1.72-5.49-2.64-8.24a887.86,887.86,0,0,1,136.75,60c14.93,8.34,23.81,23.26,23.81,40"/><path d="M920.92,387.24s9.12-84.16-21.4-182.74q-1.54-5.06-3.25-10.12c-.91-2.75-1.83-5.45-2.81-8.18a445,445,0,0,0-21.34-50.15s-38.17,2.81-86,23.32c-3.67,1.56-7.47,3.27-11.3,5.07-4.24,2-8.53,4.16-12.87,6.48-43.37,23-90.45,61.05-122.9,123.63,0,0-26.34-11-62,1.11,0,0-23.58-79.53-72.93-114.63,0,0-105.31,34.54-153.56,238.56,0,0-37.29,12.62-59.24,36.2,0,0-15.36,39.48-14.8,79.51,0,0-38.72,28.15-82.09,66.85-2.57,2.28-5.15,4.58-7.74,7s-5.18,4.73-7.75,7.15c-23.74,22.11-47.62,46.7-66.39,71,0,0-5.1,72.9,66.39,134,2.47,2.15,5.07,4.26,7.75,6.37,2.5,2,5.07,3.9,7.74,5.8,23.6,17,54,32.58,93.06,44.68,0,0,8.76,112.42,143.13,147.53,0,0-13.73-18.66-13.73-29.06,0,0,47.39,31.89,137.08,21.65,0,0-18.22,75.51-69.78,102.81l16.57,8.78,111.51,59.14c8.34,4.78,19.07,4.78,28,0l402.35-213.36a29.66,29.66,0,0,0,15.52-26.24V547.42c-22.51-47.54-63.33-106.23-137.26-160.18"/><path class="cls-2" d="M937.5,379.68c1.48-24,2.81-91-19.38-168.77-.91-3.37-2-6.78-3-10.19-.85-2.74-1.72-5.49-2.64-8.24a460.81,460.81,0,0,0-26.12-63.58l-4.71-9.55-10.66.79c-1.7.12-42.5,3.33-93.17,25.42-6.14,2.67-12.57,5.7-19.23,9.16-3.39,1.75-6.84,3.62-10.35,5.58-3.88,2.18-7.8,4.48-11.77,6.95A304.77,304.77,0,0,0,631,276a115,115,0,0,0-43.68.46c-9.74-26-33.71-79.75-74-108.38l-.61-.44-6-4.24-7.65,2.52a87.89,87.89,0,0,0-12.62,5.62C455.94,187.53,378,243.22,337,407.76c-13.34,5.49-39.47,17.94-57.4,37.2l-2.06,2.25L276.45,450c-.62,1.61-14.46,37.66-15.81,77.19-11.59,8.7-37.15,28.39-66.2,53.64-2.55,2.21-5.15,4.48-7.74,6.79s-5.16,4.58-7.75,7c-27.66,25-56.78,54-79,82.89l-3,3.83-.34,4.8c-.1,1.57-2.38,38.4,20.09,82.42C132.23,799,154.36,822.92,179,841.68c2.56,2,5.13,3.87,7.75,5.71s5.16,3.58,7.75,5.26c26.09,17.2,53.87,29.25,78.8,37.63a183.24,183.24,0,0,0,21.66,56.49c18.85,32.26,57,74.79,131.71,94.33l43.59,11.37-18.09-24.6c19.91,5.33,46.45,9.42,79.21,8.12-9.78,24.89-30.22,64-65.16,75.48l18,9.54,16.57,8.78c50.11-33.25,67.84-104.12,68.75-107.84l5.35-22.22-22.68,2.6c-65.55,7.49-111.37-9.21-126.37-19.05L401,966.52v30a18.43,18.43,0,0,0,.08,2.09C367,983.8,340.86,961.43,323.2,931.85c-17.4-29.11-19.77-54.85-19.79-55.05l-.84-10.8-10.36-3.2c-39.42-12.16-72.09-28.66-97.77-49.21q-4-3.2-7.74-6.52c-2.68-2.37-5.25-4.78-7.75-7.24a177.29,177.29,0,0,1-33-44.2c-14.81-28.25-17.18-53-17.5-62.81,14.65-18.43,32.34-37,50.47-54.49q3.86-3.71,7.75-7.37c2.57-2.41,5.17-4.81,7.74-7.19,46.28-42.48,90.81-75,91.48-75.5l6.7-4.87-.12-8.24c-.42-30.48,9.47-61.32,12.67-70.7,19.13-18.88,50.22-29.63,50.52-29.75l8.38-2.82,2-8.62c13.09-55.37,39.18-132.68,89.12-186.53,19.83-21.42,37.31-32.35,46.66-37.21,39.55,33.77,59.68,100,59.87,100.67l4.71,15.89,15.72-5.3c29-9.81,50-1.77,50.7-1.5l13.57,5.65,6.74-13c29.58-57,75.21-99.52,135.54-126.29.23-.09.47-.21.71-.31q6.87-3,13.45-5.55c4.26-1.65,8.41-3.13,12.41-4.48a295.52,295.52,0,0,1,47.43-11.9c4.22,9,8,18,11.47,27,1,2.74,2.06,5.41,3,8.1q1.83,5.06,3.51,10.08c33.1,98.51,24.39,186,24.27,187l-1,9.16,7.47,5.43c79.09,57.69,117.91,120.81,136.56,163.6,4.08,9.35,7.41,18.2,10.07,26.32V513.22c-23.38-40.4-60.92-88.45-120.66-133.56"/><path d="M1058.18,547.42V949.31a29.63,29.63,0,0,1-15.51,26.24L640.32,1188.92c-8.94,4.77-19.67,4.77-28,0L500.8,1129.77,484.2,1121C535.76,1093.71,554,1018.2,554,1018.2c-89.68,10.24-137.08-21.66-137.08-21.66,0,10.41,13.73,29.07,13.73,29.07C296.26,990.5,287.5,878.08,287.5,878.08,248.41,866,218,850.42,194.43,833.4c-2.67-1.9-5.24-3.84-7.74-5.8-2.68-2.11-5.28-4.22-7.75-6.37-71.48-61.1-66.38-134-66.38-134,18.74-24.29,42.65-48.84,66.39-71,2.57-2.42,5.17-4.8,7.75-7.15s5.17-4.7,7.74-7c43.37-38.7,82.09-66.85,82.09-66.85-.56-40,14.8-79.51,14.8-79.51,22-23.57,59.24-36.2,59.24-36.2C398.82,215.6,504.12,181,504.12,181c49.36,35.09,72.94,114.63,72.94,114.63,35.66-12.07,62-1.11,62-1.11C671.51,232,718.59,194,762,170.93q6.51-3.47,12.87-6.48c3.81-1.83,7.58-3.51,11.28-5.07h0c47.83-20.51,86-23.32,86-23.32a438.7,438.7,0,0,1,21.32,50.15h0c1,2.75,1.9,5.49,2.81,8.18h0c1.13,3.38,2.23,6.75,3.24,10.12h0c30.49,98.56,21.38,182.74,21.38,182.74,73.94,54,114.75,112.64,137.26,160.17"/><path class="cls-2" d="M943.15,927.33C931.58,903.8,912.55,889,912.55,889c13.21,121.49-121.46,172.17-121.46,172.17s-98.57,46.49-132.78,2.57-7.67-67.94-7.67-67.94l259-151.1-4-82.34c15.4,5.92,23.94,20.07,23.94,20.07,17.77-160.62-96.54-224-96.54-224,19.31,47.89,10.82,122.81,10.82,122.81-44-34-75.69-29.76-75.69-29.76,86.48,83,50.19,160.26,50.19,160.26S778.47,857,718.89,890C607,951.14,540.72,934.09,540.72,934.09c3.4,12.68,18.26,24.54,18.26,24.54-163.39-8-202.07-90.93-202.07-90.93,354.77,75.51,407.33-103.85,407.33-103.85C607,630.44,512.64,707.36,410.39,774.94c-101.09,66.9-143.13-7.61-144-9.24C300,783.18,335,755.18,307.3,722.33s-107.8-33.65-107.8-33.65L347,570.55l.24-.2a84,84,0,0,1,.26-14.79c3.12-29.54,21.17-45.27,21.17-45.27,3.23,13.44,9.27,20.33,14.76,23.87a21.75,21.75,0,0,0,12.26,3.66l.35-.28,49.35-37.83,4.1-32.45c-14.65,2.07-31,14.44-31,14.44,32.75-64.94,134.72-54.2,134.72-54.2-52.07-36-97.62-25.85-97.62-25.85,57.57-40.57,201-30.22,201-30.22C717.31,191,852.33,178.14,852.33,178.14c27.17,32.54,8.07,104.74,8.07,104.74a132.8,132.8,0,0,0-28.47-47.23C735.66,288.5,714.06,382,714.06,382c123.62,22.66,151.09,113.63,151.09,113.63,21.42-4.45,25.05-21.43,25.05-21.43,191.84,207,53,453.18,53,453.18"/><path class="cls-2" d="M185.77,743.34s35.93,7.52,39.28,17.13-4.17,23.81-8.35,22.15S189.55,763,185.79,743.35"/><path class="cls-2" d="M427.05,827.69s132.34-155.13,275.58-51.75c0,0-92,126-275.58,51.75"/><polygon points="493.1 820.21 516.89 788.67 553.45 812.8 578.28 761.55 612.54 802.11 628.52 768.62 648.08 784.49 630.41 775.84 615.27 815.79 582.69 785.97 557.11 829.85 517.93 798.53 493.1 820.21"/><path d="M461.31,658s35.76-96.26,121-123.74c0,0,33.7-52.94,101.77-56.38,0,0-15.13,29.57-8.24,48.13,0,0,55,8.24,81.14,41.94,0,0-28.2-6.19-44.7,0,0,0,40.57,19.24,53.63,48.14,0,0-89.58-19.13-136.11-10.48,0,0,12.92-38.71-38.47-21.06-37.84,12.9-44.88,49.16-44.88,49.16S512,632,461.31,658"/><path class="cls-2" d="M223.4,705.89s30.26,3.08,43.9,11.9-55.66-5.36-43.9-11.9"/><path class="cls-3" d="M943.15,927.33C931.58,903.8,912.55,889,912.55,889c13.2,121.48-121.46,172.16-121.46,172.16s-98.57,46.49-132.78,2.56-7.67-67.93-7.67-67.93l259-151.1-4-82.34c15.41,5.91,23.94,20.07,23.94,20.07C947.3,621.84,833,558.5,833,558.5c19.31,47.88,10.82,122.81,10.82,122.81-44-34-75.7-29.76-75.7-29.76,86.49,83,50.19,160.26,50.19,160.26S778.46,857,718.89,890C607,951.13,540.72,934.09,540.72,934.09c3.39,12.68,18.26,24.54,18.26,24.54-163.4-8-202.07-90.93-202.07-90.93,354.77,75.5,407.33-103.85,407.33-103.85C607,630.44,512.59,707.36,410.39,774.94c-101.09,66.9-143.13-7.61-144-9.24C300,783.18,335,755.18,307.3,722.33a52.36,52.36,0,0,0-8.31-7.85S386.91,730.8,461.32,658h.05a236.76,236.76,0,0,1,53.47-20.15h0c18.67,6.41,96.93,30.8,158.23-34.13h0c44.19,2,92.79,12.41,92.79,12.41C752.81,587.26,712.24,568,712.24,568c16.49-6.19,44.69,0,44.69,0-26.08-33.73-81.08-42-81.08-42-6.68-18.09,7.5-46.63,8.24-48.08v0s81.82-8.14,181,17.7c21.41-4.43,25-21.43,25-21.43,191.84,207,53,453.2,53,453.2"/><polygon class="cls-2" points="541.47 1313.98 523.91 1360.82 512.34 1360.82 502.49 1330.31 491.46 1360.82 479.76 1360.82 464.19 1313.98 476.25 1313.98 485.96 1344.35 496.64 1313.98 508.96 1313.98 518.47 1344.22 529.35 1313.98 541.47 1313.98"/><rect class="cls-2" x="549.26" y="1313.98" width="11.3" height="46.83"/><path class="cls-2" d="M616,1349.46a25.09,25.09,0,0,1-21.91,12.18c-14.65,0-25.34-10.74-25.34-24.58,0-13,10.67-23.91,25.34-23.91,10,0,17.84,4.69,22,11.72l-9.57,5.57c-2.21-4.27-6.55-7.09-12.47-7.09-8.24,0-13.92,6-13.92,13.73a13.82,13.82,0,0,0,13.65,14h.27a13.63,13.63,0,0,0,12.33-7.1Z"/><polygon class="cls-2" points="666.83 1360.82 655.47 1360.82 655.47 1342.63 634.87 1342.63 634.87 1360.82 623.58 1360.82 623.58 1313.98 634.87 1313.98 634.87 1332.17 655.47 1332.17 655.47 1313.98 666.83 1313.98 666.83 1360.82"/><rect class="cls-2" x="677.31" y="1313.98" width="11.3" height="46.83"/><polygon class="cls-2" points="740.95 1324.45 724.35 1324.45 724.35 1360.82 712.91 1360.82 712.91 1324.45 696.32 1324.45 696.32 1313.98 740.95 1313.98 740.95 1324.45"/><path class="cls-2" d="M773.94,1353.51H751.35l-3.1,7.33h-12l20-46.84h12.6l20.15,46.84H777Zm-3.92-9.22-7.33-17.5-7.43,17.5Z"/><polygon class="cls-2" points="356.69 1396.89 339.72 1440.97 331.19 1463.13 306.81 1463.13 315.32 1440.97 332.28 1396.89 295.37 1396.89 278.39 1440.97 269.87 1463.13 245.62 1463.13 254.14 1440.97 271.1 1396.89 218.5 1396.89 229.13 1409.99 217.25 1440.97 200.37 1484.95 359.83 1484.95 376.7 1440.97 393.63 1396.89 356.69 1396.89"/><path class="cls-2" d="M399.61,1396.92,410.25,1410l-11.91,31-16.87,44h113.4l16.88-44,16.92-44.08Zm66.65,66.23H426.73l8.53-22.15,8.51-22.12h39.52l-8.5,22.12Z"/><polygon class="cls-2" points="561.78 1463.13 570.3 1440.97 587.26 1396.89 534.66 1396.89 545.3 1409.99 533.41 1440.97 516.55 1484.95 624.06 1484.95 632.38 1463.13 561.78 1463.13"/><polygon class="cls-2" points="751.22 1396.89 734.24 1440.97 732 1446.78 706.11 1462.99 692.47 1446.78 694.72 1440.97 711.69 1396.89 659.08 1396.89 669.73 1409.99 657.88 1440.97 651.32 1458.1 674.9 1484.95 720.41 1484.95 764.72 1458.1 771.27 1440.97 788.15 1396.89 751.22 1396.89"/><polygon class="cls-2" points="908.89 1418.84 917.33 1396.89 794.14 1396.89 804.77 1409.99 792.88 1440.97 776.02 1484.95 883.53 1484.95 891.85 1463.13 821.26 1463.13 825.62 1451.82 896.21 1451.82 900.41 1440.97 904.65 1430.02 834.07 1430.02 838.3 1418.84 908.89 1418.84"/><polygon class="cls-2" points="1043.8 1418.84 1052.24 1396.89 923.33 1396.89 933.96 1409.99 922.05 1440.97 917.89 1451.82 994.19 1451.82 989.83 1463.13 913.51 1463.13 905.21 1484.95 1018.46 1484.95 1035.36 1440.97 1039.58 1430.02 963.26 1430.02 967.48 1418.84 1043.8 1418.84"/></g></g></g></svg>